<?xml version="1.0" standalone="no"?>
<!DOCTYPE svg PUBLIC "-//W3C//DTD SVG 20010904//EN"
 "http://www.w3.org/TR/2001/REC-SVG-20010904/DTD/svg10.dtd">
<svg version="1.0" xmlns="http://www.w3.org/2000/svg"
 width="290.000000pt" height="290.000000pt" viewBox="0 0 290.000000 290.000000"
 preserveAspectRatio="xMidYMid meet">
<metadata>
Created by potrace 1.11, written by Peter Selinger 2001-2013
</metadata>
<g transform="translate(0.000000,290.000000) scale(0.100000,-0.100000)"
fill="#000000" stroke="none">
<path d="M846 2829 c-129 -20 -225 -71 -409 -218 -67 -53 -147 -116 -178 -138
-63 -46 -204 -123 -226 -123 -8 0 -12 -4 -9 -8 7 -12 120 -5 204 13 137 28
320 102 419 170 21 14 40 25 43 25 3 0 7 -15 8 -32 10 -134 94 -210 233 -212
l67 -1 4 -52 c8 -89 72 -147 217 -193 33 -10 70 -24 82 -30 35 -19 49 -72 55
-213 4 -73 7 -148 8 -167 2 -30 7 -36 39 -48 21 -9 44 -11 54 -7 10 5 21 8 25
7 19 -4 27 38 32 178 9 220 20 244 123 275 84 25 138 51 177 86 44 38 58 69
57 125 l0 41 57 -2 c139 -7 227 67 247 208 l7 48 22 -19 c79 -74 353 -181 506
-198 60 -7 150 -11 150 -7 0 1 -38 20 -84 42 -96 44 -163 90 -332 227 -206
165 -331 225 -474 226 -90 1 -140 -12 -201 -51 -81 -51 -106 -136 -79 -265 9
-47 9 -61 -5 -89 -43 -92 -253 -133 -396 -78 -96 37 -123 82 -104 174 29 141
-14 238 -125 285 -56 23 -143 32 -214 21z"/>
<path d="M1385 2702 c-89 -31 -124 -124 -86 -224 25 -65 114 -98 196 -71 104
34 128 201 39 270 -36 27 -108 39 -149 25z"/>
<path d="M585 2415 c-88 -58 -219 -128 -305 -163 -30 -13 -73 -32 -95 -42
l-40 -18 51 -1 c113 -2 278 42 431 114 l93 44 -27 58 c-14 32 -26 58 -27 59
-1 1 -37 -22 -81 -51z"/>
<path d="M2189 2432 c-7 -20 -18 -47 -26 -58 -13 -20 -10 -23 54 -57 63 -32
194 -84 236 -92 10 -2 26 -6 35 -9 50 -15 252 -34 242 -23 -3 3 -39 19 -80 35
-137 54 -275 127 -412 217 l-37 24 -12 -37z"/>
<path d="M703 2298 c-58 -47 -211 -147 -275 -179 -32 -16 -58 -31 -58 -33 0
-6 80 3 125 15 101 25 281 106 326 145 8 8 21 14 27 14 7 0 12 5 12 10 0 6 -6
10 -14 10 -7 0 -34 11 -59 24 l-46 25 -38 -31z"/>
<path d="M2085 2304 c-22 -13 -49 -24 -60 -24 -18 0 -18 -2 5 -20 81 -65 332
-167 429 -174 50 -4 47 3 -16 34 -57 28 -211 129 -270 176 -23 19 -43 34 -45
33 -2 0 -21 -12 -43 -25z"/>
<path d="M870 2230 c-25 -22 -87 -72 -138 -112 -51 -39 -90 -73 -88 -75 6 -6
124 36 179 64 28 14 74 40 102 59 47 32 51 37 47 69 -4 30 -8 35 -31 35 -17 0
-43 -14 -71 -40z"/>
<path d="M1909 2263 c0 -5 -3 -20 -5 -35 -4 -21 2 -32 28 -51 73 -55 253 -137
301 -137 6 0 -28 29 -74 63 -46 35 -109 87 -140 115 -38 35 -65 52 -83 52 -14
0 -26 -3 -27 -7z"/>
<path d="M1080 1940 c-89 -30 -153 -108 -153 -187 0 -96 116 -190 393 -316
244 -112 274 -130 296 -183 21 -51 -3 -101 -84 -174 -36 -33 -64 -61 -61 -63
2 -2 32 -23 67 -46 l63 -42 52 42 c121 99 162 162 161 254 -1 146 -92 227
-389 345 -198 79 -271 124 -304 188 -10 19 -9 25 11 43 13 11 52 33 88 48 48
20 66 32 68 48 7 50 -113 75 -208 43z"/>
<path d="M1672 1950 c-51 -8 -77 -30 -68 -58 5 -14 30 -30 77 -48 74 -29 100
-53 92 -84 -11 -42 -119 -118 -230 -161 l-62 -24 97 -45 97 -46 69 38 c228
126 279 241 159 362 -54 55 -141 80 -231 66z"/>
<path d="M1188 1432 c-77 -63 -111 -129 -111 -212 -1 -106 55 -172 298 -353
151 -112 189 -146 211 -189 19 -37 14 -58 -39 -163 -25 -50 -49 -108 -52 -130
-4 -22 -9 -49 -11 -59 -4 -23 0 -18 48 54 21 30 60 82 88 115 94 110 129 170
126 215 -6 75 -63 134 -276 288 -153 111 -200 163 -200 226 0 45 37 86 111
123 24 13 41 23 38 23 -4 0 -50 20 -103 45 l-96 44 -32 -27z"/>
<path d="M1400 1336 c-24 -14 -24 -16 -22 -128 3 -108 4 -114 30 -140 l27 -28
27 23 c25 21 27 27 32 139 l6 118 -30 15 c-35 18 -38 18 -70 1z"/>
<path d="M1284 892 c-21 -14 -97 -118 -112 -152 -35 -85 -11 -146 108 -270 44
-47 88 -95 97 -107 8 -13 19 -23 23 -23 12 0 -16 74 -61 162 -23 43 -42 94
-44 113 -4 41 24 87 90 147 l45 41 -58 42 c-75 54 -76 55 -88 47z"/>
<path d="M1411 764 c-13 -16 -16 -81 -6 -174 2 -19 6 -102 10 -185 5 -93 12
-153 19 -157 8 -5 7 -8 -2 -8 -7 0 -10 -5 -6 -11 4 -7 7 -36 6 -66 0 -84 8
-56 13 43 3 49 7 125 10 169 3 44 8 118 10 165 3 47 8 113 11 147 4 55 2 63
-18 77 -27 19 -29 19 -47 0z"/>
</g>
</svg>
